<svg width="398" height="374" viewBox="0 0 398 374" fill="none" xmlns="http://www.w3.org/2000/svg">
<rect width="398" height="374" fill="white" fill-opacity="0.99"/>
<g clip-path="url(#clip0_0_1)">
<path d="M139.007 230.867C114.327 207.736 91.6083 185.656 88.5257 181.819C73.4544 163.05 79.0927 136.646 100.622 125.222C111.079 119.67 125.243 119.349 135.769 124.433C145.016 128.894 231.962 211.378 237.356 220.816C248.262 239.847 241.092 262.862 221.075 273.098C214.364 276.536 212.667 276.984 205.302 277.266C198.542 277.52 195.859 277.159 190.464 275.25C184.065 272.991 182.641 271.764 139.007 230.867Z" fill="#386682" fill-opacity="0.988235"/>
<path d="M241.063 196.438C221.631 175.838 221.007 167.219 237.473 146.853C247.97 133.861 260.368 123.43 268.582 120.664C302.217 109.346 330.818 138.02 318.263 170.443C315.981 176.355 313.971 178.663 288.092 205.262C272.835 220.933 260.163 233.75 259.919 233.75C259.676 233.75 258.866 230.351 258.115 226.202C256.291 216.121 251.12 207.093 241.063 196.438Z" fill="#AFCE6B" fill-opacity="0.988235"/>
</g>
<defs>
<clipPath id="clip0_0_1">
<rect width="398" height="374" fill="white"/>
</clipPath>
</defs>
</svg>
